<svg width="20" height="20" viewBox="0 0 20 20" fill="none" xmlns="http://www.w3.org/2000/svg">
<path opacity="0.4" d="M14.6167 7.34167C15.979 7.34167 17.0834 6.23731 17.0834 4.87501C17.0834 3.5127 15.979 2.40834 14.6167 2.40834C13.2544 2.40834 12.15 3.5127 12.15 4.87501C12.15 6.23731 13.2544 7.34167 14.6167 7.34167Z" fill="white" fill-opacity="0.86"/>
<path d="M5.38329 7.34167C6.74559 7.34167 7.84996 6.23731 7.84996 4.87501C7.84996 3.5127 6.74559 2.40834 5.38329 2.40834C4.02099 2.40834 2.91663 3.5127 2.91663 4.87501C2.91663 6.23731 4.02099 7.34167 5.38329 7.34167Z" fill="white" fill-opacity="0.86"/>
<path d="M14.6167 17.5917C15.979 17.5917 17.0834 16.4873 17.0834 15.125C17.0834 13.7627 15.979 12.6583 14.6167 12.6583C13.2544 12.6583 12.15 13.7627 12.15 15.125C12.15 16.4873 13.2544 17.5917 14.6167 17.5917Z" fill="white" fill-opacity="0.86"/>
<path opacity="0.4" d="M5.38329 17.5917C6.74559 17.5917 7.84996 16.4873 7.84996 15.125C7.84996 13.7627 6.74559 12.6583 5.38329 12.6583C4.02099 12.6583 2.91663 13.7627 2.91663 15.125C2.91663 16.4873 4.02099 17.5917 5.38329 17.5917Z" fill="white" fill-opacity="0.86"/>
</svg>
