<svg width="20" height="20" viewBox="0 0 20 20" fill="none" xmlns="http://www.w3.org/2000/svg">
<path d="M17.5 10C17.5011 11.4521 17.4211 12.9043 17.26 14.3499L17.2457 14.4783C17.0394 16.3293 15.5867 17.7975 13.7333 18.0285L12.9782 18.1226C12.5658 18.174 12.3597 18.1997 12.1537 18.2212C10.7217 18.3708 9.27791 18.3708 7.84587 18.2212C7.63993 18.1997 7.43376 18.174 7.02141 18.1226L6.17516 18.0172C4.3739 17.7927 2.96055 16.3685 2.75443 14.5703C2.41519 11.6108 2.41519 8.62226 2.75443 5.66264L2.76751 5.54849C2.96854 3.79473 4.2927 2.37647 6.0328 2.05117L6.212 2.01767C8.71541 1.54967 11.2842 1.54967 13.7876 2.01766L14.0567 2.06798C15.7445 2.3835 17.0306 3.75637 17.2312 5.45675C17.2787 5.85955 17.3199 6.26291 17.3548 6.66667" stroke="white" stroke-opacity="0.86" stroke-width="1.5" stroke-linecap="round"/>
<path d="M14.1667 5C13.567 5.50219 12.075 6.25 9.99999 6.25C7.92499 6.25 6.43297 5.50219 5.83333 5" stroke="white" stroke-opacity="0.86" stroke-width="1.5" stroke-linecap="round"/>
</svg>
