<svg width="22" height="22" viewBox="0 0 22 22" fill="none" xmlns="http://www.w3.org/2000/svg">
<path d="M11 17.4166C14.0342 17.4166 16.5 14.9508 16.5 11.9166V7.33331C16.5 4.29915 14.0342 1.83331 11 1.83331C7.96583 1.83331 5.5 4.29915 5.5 7.33331V11.9166C5.5 14.9508 7.96583 17.4166 11 17.4166Z" stroke="#2B2C33" stroke-width="1.5" stroke-linecap="round" stroke-linejoin="round"/>
<path opacity="0.4" d="M2.75 10.0833V11.9166C2.75 16.4725 6.44417 20.1666 11 20.1666C15.5558 20.1666 19.25 16.4725 19.25 11.9166V10.0833" stroke="#2B2C33" stroke-width="1.5" stroke-linecap="round" stroke-linejoin="round"/>
<path opacity="0.4" d="M8.35083 6.85667C9.9825 6.26083 11.7608 6.26083 13.3925 6.85667" stroke="#2B2C33" stroke-width="1.5" stroke-linecap="round" stroke-linejoin="round"/>
<path opacity="0.4" d="M9.19421 9.60664C10.2942 9.30414 11.4584 9.30414 12.5584 9.60664" stroke="#2B2C33" stroke-width="1.5" stroke-linecap="round" stroke-linejoin="round"/>
</svg>
